<mxfile host="65bd71144e">
    <diagram id="9nzFfJOiQCiTrgzbj1Kd" name="Server Architecture">
        <mxGraphModel dx="1914" dy="937" grid="1" gridSize="10" guides="1" tooltips="1" connect="1" arrows="1" fold="1" page="1" pageScale="1" pageWidth="850" pageHeight="1100" math="0" shadow="0">
            <root>
                <mxCell id="0"/>
                <mxCell id="1" parent="0"/>
                <mxCell id="2" value="Controller" style="rounded=1;whiteSpace=wrap;html=1;" parent="1" vertex="1">
                    <mxGeometry x="80" y="200" width="120" height="60" as="geometry"/>
                </mxCell>
                <mxCell id="3" value="Socket" style="rounded=1;whiteSpace=wrap;html=1;" parent="1" vertex="1">
                    <mxGeometry x="80" y="280" width="120" height="60" as="geometry"/>
                </mxCell>
                <mxCell id="4" value="" style="endArrow=none;html=1;" parent="1" edge="1">
                    <mxGeometry width="50" height="50" relative="1" as="geometry">
                        <mxPoint x="240" y="360" as="sourcePoint"/>
                        <mxPoint x="240" y="160" as="targetPoint"/>
                    </mxGeometry>
                </mxCell>
                <mxCell id="5" value="Service" style="rounded=1;whiteSpace=wrap;html=1;" parent="1" vertex="1">
                    <mxGeometry x="280" y="230" width="120" height="60" as="geometry"/>
                </mxCell>
                <mxCell id="6" value="" style="endArrow=none;html=1;" parent="1" edge="1">
                    <mxGeometry width="50" height="50" relative="1" as="geometry">
                        <mxPoint x="440" y="360" as="sourcePoint"/>
                        <mxPoint x="440" y="160" as="targetPoint"/>
                    </mxGeometry>
                </mxCell>
                <mxCell id="7" value="Repository" style="rounded=1;whiteSpace=wrap;html=1;" parent="1" vertex="1">
                    <mxGeometry x="480" y="190" width="120" height="60" as="geometry"/>
                </mxCell>
                <mxCell id="8" value="&lt;font style=&quot;font-size: 17px;&quot;&gt;3 Layer Architecture&lt;br&gt;&amp;nbsp;(principle of separation of concerns)&lt;/font&gt;" style="text;html=1;strokeColor=none;fillColor=none;align=center;verticalAlign=middle;whiteSpace=wrap;rounded=0;" parent="1" vertex="1">
                    <mxGeometry x="75" y="30" width="530" height="50" as="geometry"/>
                </mxCell>
                <mxCell id="9" value="Bridge" style="rounded=1;whiteSpace=wrap;html=1;" parent="1" vertex="1">
                    <mxGeometry x="480" y="270" width="120" height="60" as="geometry"/>
                </mxCell>
                <mxCell id="10" value="&lt;font style=&quot;font-size: 14px;&quot;&gt;business logic layer&lt;/font&gt;" style="text;html=1;strokeColor=none;fillColor=none;align=center;verticalAlign=middle;whiteSpace=wrap;rounded=0;fontSize=17;" parent="1" vertex="1">
                    <mxGeometry x="270" y="120" width="140" height="40" as="geometry"/>
                </mxCell>
                <mxCell id="11" value="&lt;font style=&quot;font-size: 14px;&quot;&gt;data access layer&lt;/font&gt;" style="text;html=1;strokeColor=none;fillColor=none;align=center;verticalAlign=middle;whiteSpace=wrap;rounded=0;fontSize=17;" parent="1" vertex="1">
                    <mxGeometry x="465" y="120" width="150" height="40" as="geometry"/>
                </mxCell>
                <mxCell id="12" value="&lt;font style=&quot;font-size: 14px;&quot;&gt;routing layer&lt;/font&gt;" style="text;html=1;strokeColor=none;fillColor=none;align=center;verticalAlign=middle;whiteSpace=wrap;rounded=0;fontSize=17;" parent="1" vertex="1">
                    <mxGeometry x="90" y="120" width="100" height="40" as="geometry"/>
                </mxCell>
            </root>
        </mxGraphModel>
    </diagram>
    <diagram id="hYxX7uPKr27TxRZZdxpK" name="Networking">
        <mxGraphModel dx="1914" dy="937" grid="1" gridSize="10" guides="1" tooltips="1" connect="1" arrows="1" fold="1" page="1" pageScale="1" pageWidth="850" pageHeight="1100" math="0" shadow="0">
            <root>
                <mxCell id="0"/>
                <mxCell id="1" parent="0"/>
                <mxCell id="WObCjzfSM2w_8v7f-vCa-1" value="Load&lt;br&gt;Balancer" style="ellipse;whiteSpace=wrap;html=1;aspect=fixed;" parent="1" vertex="1">
                    <mxGeometry x="290" y="160" width="80" height="80" as="geometry"/>
                </mxCell>
                <mxCell id="WObCjzfSM2w_8v7f-vCa-2" value="Actor" style="shape=umlActor;verticalLabelPosition=bottom;verticalAlign=top;html=1;outlineConnect=0;" parent="1" vertex="1">
                    <mxGeometry x="120" y="160" width="30" height="60" as="geometry"/>
                </mxCell>
                <mxCell id="WObCjzfSM2w_8v7f-vCa-4" value="POD" style="rounded=1;whiteSpace=wrap;html=1;" parent="1" vertex="1">
                    <mxGeometry x="470" y="170" width="120" height="60" as="geometry"/>
                </mxCell>
                <mxCell id="WObCjzfSM2w_8v7f-vCa-5" value="POD" style="rounded=1;whiteSpace=wrap;html=1;" parent="1" vertex="1">
                    <mxGeometry x="470" y="250" width="120" height="60" as="geometry"/>
                </mxCell>
                <mxCell id="WObCjzfSM2w_8v7f-vCa-6" value="POD" style="rounded=1;whiteSpace=wrap;html=1;" parent="1" vertex="1">
                    <mxGeometry x="470" y="90" width="120" height="60" as="geometry"/>
                </mxCell>
                <mxCell id="WObCjzfSM2w_8v7f-vCa-7" value="" style="endArrow=classic;html=1;" parent="1" edge="1">
                    <mxGeometry width="50" height="50" relative="1" as="geometry">
                        <mxPoint x="370" y="199.5" as="sourcePoint"/>
                        <mxPoint x="470" y="199.5" as="targetPoint"/>
                    </mxGeometry>
                </mxCell>
                <mxCell id="WObCjzfSM2w_8v7f-vCa-8" value="" style="endArrow=classic;html=1;" parent="1" edge="1">
                    <mxGeometry width="50" height="50" relative="1" as="geometry">
                        <mxPoint x="370" y="200" as="sourcePoint"/>
                        <mxPoint x="470" y="279.5" as="targetPoint"/>
                    </mxGeometry>
                </mxCell>
                <mxCell id="WObCjzfSM2w_8v7f-vCa-9" value="" style="endArrow=classic;html=1;" parent="1" edge="1">
                    <mxGeometry width="50" height="50" relative="1" as="geometry">
                        <mxPoint x="370" y="200" as="sourcePoint"/>
                        <mxPoint x="470" y="119.5" as="targetPoint"/>
                    </mxGeometry>
                </mxCell>
                <mxCell id="s9FMSxtufiQVNxBVckP9-2" value="Financial API" style="rounded=1;whiteSpace=wrap;html=1;" parent="1" vertex="1">
                    <mxGeometry x="120" y="550" width="120" height="60" as="geometry"/>
                </mxCell>
                <mxCell id="s9FMSxtufiQVNxBVckP9-3" value="Socket API" style="rounded=1;whiteSpace=wrap;html=1;" parent="1" vertex="1">
                    <mxGeometry x="360" y="550" width="120" height="60" as="geometry"/>
                </mxCell>
                <mxCell id="s9FMSxtufiQVNxBVckP9-5" value="" style="endArrow=classic;html=1;exitX=1;exitY=0.25;exitDx=0;exitDy=0;entryX=0;entryY=0.25;entryDx=0;entryDy=0;" parent="1" source="s9FMSxtufiQVNxBVckP9-2" target="s9FMSxtufiQVNxBVckP9-3" edge="1">
                    <mxGeometry relative="1" as="geometry">
                        <mxPoint x="370" y="480" as="sourcePoint"/>
                        <mxPoint x="470" y="480" as="targetPoint"/>
                    </mxGeometry>
                </mxCell>
                <mxCell id="s9FMSxtufiQVNxBVckP9-6" value="HTTP" style="edgeLabel;resizable=0;html=1;align=center;verticalAlign=middle;" parent="s9FMSxtufiQVNxBVckP9-5" connectable="0" vertex="1">
                    <mxGeometry relative="1" as="geometry"/>
                </mxCell>
                <mxCell id="s9FMSxtufiQVNxBVckP9-8" value="" style="endArrow=classic;html=1;exitX=1;exitY=0.5;exitDx=0;exitDy=0;entryX=0;entryY=0.5;entryDx=0;entryDy=0;" parent="1" target="WObCjzfSM2w_8v7f-vCa-1" edge="1">
                    <mxGeometry relative="1" as="geometry">
                        <mxPoint x="160" y="199.5" as="sourcePoint"/>
                        <mxPoint x="270" y="200" as="targetPoint"/>
                    </mxGeometry>
                </mxCell>
                <mxCell id="s9FMSxtufiQVNxBVckP9-9" value="HTTP" style="edgeLabel;resizable=0;html=1;align=center;verticalAlign=middle;" parent="s9FMSxtufiQVNxBVckP9-8" connectable="0" vertex="1">
                    <mxGeometry relative="1" as="geometry"/>
                </mxCell>
                <mxCell id="s9FMSxtufiQVNxBVckP9-10" value="Financial API" style="rounded=1;whiteSpace=wrap;html=1;" parent="1" vertex="1">
                    <mxGeometry x="120" y="1060" width="120" height="60" as="geometry"/>
                </mxCell>
                <mxCell id="s9FMSxtufiQVNxBVckP9-11" value="Socket API" style="rounded=1;whiteSpace=wrap;html=1;" parent="1" vertex="1">
                    <mxGeometry x="280" y="1060" width="120" height="60" as="geometry"/>
                </mxCell>
                <mxCell id="s9FMSxtufiQVNxBVckP9-14" value="Message&lt;br&gt;Broker" style="ellipse;whiteSpace=wrap;html=1;aspect=fixed;" parent="1" vertex="1">
                    <mxGeometry x="240" y="880" width="80" height="80" as="geometry"/>
                </mxCell>
                <mxCell id="s9FMSxtufiQVNxBVckP9-15" value="" style="endArrow=classic;html=1;exitX=0.5;exitY=0;exitDx=0;exitDy=0;entryX=0.25;entryY=1;entryDx=0;entryDy=0;entryPerimeter=0;" parent="1" source="s9FMSxtufiQVNxBVckP9-10" target="s9FMSxtufiQVNxBVckP9-14" edge="1">
                    <mxGeometry relative="1" as="geometry">
                        <mxPoint x="370" y="950" as="sourcePoint"/>
                        <mxPoint x="470" y="950" as="targetPoint"/>
                    </mxGeometry>
                </mxCell>
                <mxCell id="s9FMSxtufiQVNxBVckP9-16" value="AMQP" style="edgeLabel;resizable=0;html=1;align=center;verticalAlign=middle;" parent="s9FMSxtufiQVNxBVckP9-15" connectable="0" vertex="1">
                    <mxGeometry relative="1" as="geometry"/>
                </mxCell>
                <mxCell id="s9FMSxtufiQVNxBVckP9-17" value="" style="endArrow=classic;html=1;exitX=0.5;exitY=0;exitDx=0;exitDy=0;entryX=0.5;entryY=1;entryDx=0;entryDy=0;" parent="1" source="s9FMSxtufiQVNxBVckP9-11" target="s9FMSxtufiQVNxBVckP9-14" edge="1">
                    <mxGeometry relative="1" as="geometry">
                        <mxPoint x="300" y="1060" as="sourcePoint"/>
                        <mxPoint x="400" y="960" as="targetPoint"/>
                    </mxGeometry>
                </mxCell>
                <mxCell id="s9FMSxtufiQVNxBVckP9-18" value="AMQP" style="edgeLabel;resizable=0;html=1;align=center;verticalAlign=middle;" parent="s9FMSxtufiQVNxBVckP9-17" connectable="0" vertex="1">
                    <mxGeometry relative="1" as="geometry"/>
                </mxCell>
                <mxCell id="s9FMSxtufiQVNxBVckP9-19" value="???" style="rounded=1;whiteSpace=wrap;html=1;" parent="1" vertex="1">
                    <mxGeometry x="440" y="1060" width="120" height="60" as="geometry"/>
                </mxCell>
                <mxCell id="s9FMSxtufiQVNxBVckP9-20" value="" style="endArrow=classic;html=1;exitX=0.5;exitY=0;exitDx=0;exitDy=0;entryX=0.843;entryY=0.959;entryDx=0;entryDy=0;entryPerimeter=0;" parent="1" target="s9FMSxtufiQVNxBVckP9-14" edge="1">
                    <mxGeometry relative="1" as="geometry">
                        <mxPoint x="500" y="1060" as="sourcePoint"/>
                        <mxPoint x="440" y="960" as="targetPoint"/>
                    </mxGeometry>
                </mxCell>
                <mxCell id="s9FMSxtufiQVNxBVckP9-21" value="AMQP" style="edgeLabel;resizable=0;html=1;align=center;verticalAlign=middle;" parent="s9FMSxtufiQVNxBVckP9-20" connectable="0" vertex="1">
                    <mxGeometry relative="1" as="geometry"/>
                </mxCell>
                <mxCell id="mlzdyVpbo0aRIE2vmQru-1" value="" style="endArrow=classic;html=1;exitX=0;exitY=0.75;exitDx=0;exitDy=0;entryX=1;entryY=0.75;entryDx=0;entryDy=0;" edge="1" parent="1" source="s9FMSxtufiQVNxBVckP9-3" target="s9FMSxtufiQVNxBVckP9-2">
                    <mxGeometry relative="1" as="geometry">
                        <mxPoint x="250" y="590" as="sourcePoint"/>
                        <mxPoint x="260" y="650" as="targetPoint"/>
                    </mxGeometry>
                </mxCell>
                <mxCell id="mlzdyVpbo0aRIE2vmQru-2" value="HTTP" style="edgeLabel;resizable=0;html=1;align=center;verticalAlign=middle;" connectable="0" vertex="1" parent="mlzdyVpbo0aRIE2vmQru-1">
                    <mxGeometry relative="1" as="geometry"/>
                </mxCell>
            </root>
        </mxGraphModel>
    </diagram>
</mxfile>